#N canvas 293 31 911 418 12;
#X obj 40 191 s bela_setGpio;
#X obj 133 368 s bela_gpioOut;
#X obj 342 212 r bela_gpioIn;
#X obj 40 137 loadbang;
#X obj 342 243 print gpioIn;
#X obj 63 249 metro 1000;
#X msg 555 344 115;
#X obj 555 367 s bela_gpioRead;
#X text 338 157 You will receive gpio readings here when:;
#X text 338 167 - pin is created;
#X text 338 177 - pin changes value;
#X text 338 187 - a message is sent with the pin number to bela_gpioRead
;
#X text 502 261 Poll the input pin;
#X text 502 272 This is mostly unnecessary because you would;
#X text 502 282 automatically get a message when it changes anyhow
;
#X text 437 86 Pin 115 is the button on the cape;
#X text 437 98 Run with --stop-button-pin=-1 in order to disable its
;
#X text 437 108 default behaviour of stopping the program.;
#X text 438 50 Pin 87 is the blue LED on the BelaMini cape;
#X text 440 227 Receives [pin value( pairs;
#X obj 166 274 delay 100;
#X msg 133 281 1;
#X msg 166 298 0;
#X text 438 70 Run with --disable-led to disable their default behaviour
;
#X text 438 60 Pin 89 is the red LED on the BelaMini cape;
#X obj 266 270 route 115;
#X text 240 362 Write to the output pins;
#X text 240 375 Takes [pin value( pairs;
#X obj 266 295 == 0;
#X msg 266 320 89 \$1;
#X msg 132 331 87 \$1;
#X text 312 298 Turn on red LED when;
#X text 312 310 pressing the button;
#X text 3 311 Periodically blink;
#X text 53 321 blue LED;
#X msg 40 163 in 115 \, out 87 \, out 89;
#X text 113 131 Takes [direction pin( pairs;
#X text 112 118 Initialise the pins you are using;
#X obj 63 226 loadbang;
#X obj 555 322 metro 1000;
#X obj 555 299 loadbang;
#X text 10 1 Using other GPIO pins on Bela for lower-rate I/O;
#X text 7 18 See https://learn.bela.io/using-bela/technical-explainers/other-uses-of-gpio-pins/
;
#X text 666 356 Takes the pin number.;
#X text 662 325 This must have been initialised;
#X text 661 307 Request a gpio to be read now.;
#X text 662 335 previously with bela_setGpio;
#X connect 2 0 4 0;
#X connect 2 0 25 0;
#X connect 3 0 35 0;
#X connect 5 0 21 0;
#X connect 5 0 20 0;
#X connect 6 0 7 0;
#X connect 20 0 22 0;
#X connect 21 0 30 0;
#X connect 22 0 30 0;
#X connect 25 0 28 0;
#X connect 28 0 29 0;
#X connect 29 0 1 0;
#X connect 30 0 1 0;
#X connect 35 0 0 0;
#X connect 38 0 5 0;
#X connect 39 0 6 0;
#X connect 40 0 39 0;
